<svg xmlns="http://www.w3.org/2000/svg" xmlns:xlink="http://www.w3.org/1999/xlink" width="375" zoomAndPan="magnify" viewBox="0 0 281.25 112.499997" height="150" preserveAspectRatio="xMidYMid meet" version="1.0"><defs><g/><clipPath id="a837731d4d"><path d="M 0.25 0 L 280.253906 0 L 280.253906 112.003906 L 0.25 112.003906 Z M 0.25 0 " clip-rule="nonzero"/></clipPath></defs><g clip-path="url(#a837731d4d)"><path fill="#ffffff" d="M 0.25 0 L 281 0 L 281 119.46875 L 0.25 119.46875 Z M 0.25 0 " fill-opacity="1" fill-rule="nonzero"/><path fill="#ffffff" d="M 0.25 0 L 280.253906 0 L 280.253906 112.003906 L 0.25 112.003906 Z M 0.25 0 " fill-opacity="1" fill-rule="nonzero"/><path fill="#ffffff" d="M 0.25 0 L 280.253906 0 L 280.253906 112.003906 L 0.25 112.003906 Z M 0.25 0 " fill-opacity="1" fill-rule="nonzero"/></g><g fill="#171414" fill-opacity="1"><g transform="translate(18.927599, 71.311403)"><g><path d="M 10.863281 13.65625 L 10.863281 -1.578125 C 12.867188 -0.121094 15.171875 0.605469 17.660156 0.605469 C 21.242188 0.605469 24.214844 -0.726562 26.582031 -3.460938 C 29.011719 -6.191406 30.222656 -9.589844 30.222656 -13.65625 C 30.222656 -17.722656 29.011719 -21.058594 26.644531 -23.789062 C 24.277344 -26.523438 21.242188 -27.917969 17.660156 -27.917969 C 15.171875 -27.917969 12.925781 -27.1875 10.863281 -25.792969 L 10.863281 -27.3125 L 1.699219 -27.3125 L 1.699219 13.65625 Z M 10.984375 -13.59375 C 10.984375 -16.570312 13.167969 -18.933594 15.839844 -18.933594 C 18.511719 -18.933594 20.632812 -16.570312 20.632812 -13.59375 C 20.632812 -10.679688 18.511719 -8.4375 15.839844 -8.4375 C 13.167969 -8.4375 10.984375 -10.679688 10.984375 -13.59375 Z M 10.984375 -13.59375 "/></g></g></g><g fill="#171414" fill-opacity="1"><g transform="translate(50.116904, 71.311403)"><g><path d="M 13.535156 -27.917969 C 9.953125 -27.917969 6.980469 -26.523438 4.550781 -23.789062 C 2.183594 -21.058594 0.972656 -17.722656 0.972656 -13.65625 C 0.972656 -9.589844 2.183594 -6.191406 4.550781 -3.460938 C 6.980469 -0.726562 9.953125 0.605469 13.535156 0.605469 C 16.023438 0.605469 18.269531 -0.121094 20.332031 -1.515625 L 20.332031 0 L 29.496094 0 L 29.496094 -27.3125 L 20.332031 -27.3125 L 20.332031 -25.792969 C 18.269531 -27.1875 16.023438 -27.917969 13.535156 -27.917969 Z M 10.558594 -13.714844 C 10.558594 -16.628906 12.746094 -18.933594 15.414062 -18.933594 C 18.085938 -18.933594 20.210938 -16.628906 20.210938 -13.714844 C 20.210938 -10.742188 18.085938 -8.4375 15.414062 -8.4375 C 12.746094 -8.4375 10.558594 -10.742188 10.558594 -13.714844 Z M 10.558594 -13.714844 "/></g></g></g><g fill="#171414" fill-opacity="1"><g transform="translate(81.30621, 71.311403)"><g><path d="M 13.535156 -27.917969 C 9.953125 -27.917969 6.980469 -26.523438 4.550781 -23.789062 C 2.183594 -21.058594 0.972656 -17.722656 0.972656 -13.65625 C 0.972656 -9.589844 2.183594 -6.191406 4.550781 -3.460938 C 6.980469 -0.726562 9.953125 0.605469 13.535156 0.605469 C 16.023438 0.605469 18.269531 -0.121094 20.332031 -1.515625 L 20.332031 0 L 29.496094 0 L 29.496094 -44 L 20.332031 -44 L 20.332031 -25.792969 C 18.269531 -27.1875 16.023438 -27.917969 13.535156 -27.917969 Z M 10.558594 -13.714844 C 10.558594 -16.628906 12.746094 -18.933594 15.414062 -18.933594 C 18.085938 -18.933594 20.210938 -16.628906 20.210938 -13.714844 C 20.210938 -10.742188 18.085938 -8.4375 15.414062 -8.4375 C 12.746094 -8.4375 10.558594 -10.742188 10.558594 -13.714844 Z M 10.558594 -13.714844 "/></g></g></g><g fill="#171414" fill-opacity="1"><g transform="translate(112.495515, 71.311403)"><g><path d="M 13.535156 -27.917969 C 9.953125 -27.917969 6.980469 -26.523438 4.550781 -23.789062 C 2.183594 -21.058594 0.972656 -17.722656 0.972656 -13.65625 C 0.972656 -9.589844 2.183594 -6.191406 4.550781 -3.460938 C 6.980469 -0.726562 9.953125 0.605469 13.535156 0.605469 C 16.023438 0.605469 18.269531 -0.121094 20.332031 -1.515625 L 20.332031 0 L 29.496094 0 L 29.496094 -27.3125 L 20.332031 -27.3125 L 20.332031 -25.792969 C 18.269531 -27.1875 16.023438 -27.917969 13.535156 -27.917969 Z M 10.558594 -13.714844 C 10.558594 -16.628906 12.746094 -18.933594 15.414062 -18.933594 C 18.085938 -18.933594 20.210938 -16.628906 20.210938 -13.714844 C 20.210938 -10.742188 18.085938 -8.4375 15.414062 -8.4375 C 12.746094 -8.4375 10.558594 -10.742188 10.558594 -13.714844 Z M 10.558594 -13.714844 "/></g></g></g><g fill="#171414" fill-opacity="1"><g transform="translate(143.68482, 71.311403)"><g><path d="M 10.863281 0 L 10.863281 -15.476562 C 10.863281 -17.84375 12.378906 -19.542969 14.382812 -19.542969 C 16.324219 -19.542969 17.84375 -17.722656 17.84375 -15.476562 L 17.84375 0 L 27.066406 0 L 27.066406 -15.476562 C 27.066406 -17.84375 28.585938 -19.542969 30.589844 -19.542969 C 32.53125 -19.542969 34.046875 -17.722656 34.046875 -15.476562 L 34.046875 0 L 43.210938 0 L 43.210938 -17.78125 C 43.210938 -20.632812 42.242188 -23.0625 40.238281 -25.003906 C 38.296875 -26.945312 35.929688 -27.917969 33.078125 -27.917969 C 29.800781 -27.917969 27.1875 -26.582031 25.308594 -23.972656 C 23.425781 -26.582031 20.757812 -27.917969 17.355469 -27.917969 C 14.6875 -27.917969 12.503906 -27.007812 10.863281 -25.1875 L 10.863281 -27.3125 L 1.699219 -27.3125 L 1.699219 0 Z M 10.863281 0 "/></g></g></g><g fill="#ff0000" fill-opacity="1"><g transform="translate(188.587609, 71.311403)"><g><path d="M 12.078125 0 L 12.078125 -23.667969 L 30.464844 0 L 39.386719 0 L 39.386719 -40.964844 L 29.738281 -40.964844 L 29.738281 -17.234375 L 11.347656 -40.964844 L 2.367188 -40.964844 L 2.367188 0 Z M 12.078125 0 "/></g></g></g><g fill="#ff0000" fill-opacity="1"><g transform="translate(230.39584, 71.311403)"><g><path d="M 13.535156 -27.917969 C 9.953125 -27.917969 6.980469 -26.523438 4.550781 -23.789062 C 2.183594 -21.058594 0.972656 -17.722656 0.972656 -13.65625 C 0.972656 -9.589844 2.183594 -6.191406 4.550781 -3.460938 C 6.980469 -0.726562 9.953125 0.605469 13.535156 0.605469 C 16.023438 0.605469 18.269531 -0.121094 20.332031 -1.515625 L 20.332031 0 L 29.496094 0 L 29.496094 -27.3125 L 20.332031 -27.3125 L 20.332031 -25.792969 C 18.269531 -27.1875 16.023438 -27.917969 13.535156 -27.917969 Z M 10.558594 -13.714844 C 10.558594 -16.628906 12.746094 -18.933594 15.414062 -18.933594 C 18.085938 -18.933594 20.210938 -16.628906 20.210938 -13.714844 C 20.210938 -10.742188 18.085938 -8.4375 15.414062 -8.4375 C 12.746094 -8.4375 10.558594 -10.742188 10.558594 -13.714844 Z M 10.558594 -13.714844 "/></g></g></g></svg>